<svg xmlns="http://www.w3.org/2000/svg" xmlns:xlink="http://www.w3.org/1999/xlink" width="200" zoomAndPan="magnify" viewBox="0 0 150 74.999997" height="100" preserveAspectRatio="xMidYMid meet" version="1.0"><defs><g/><clipPath id="015ed4515d"><path d="M 46.394531 24.730469 L 65.894531 24.730469 L 65.894531 50 L 46.394531 50 Z M 46.394531 24.730469 " clip-rule="nonzero"/></clipPath></defs><g clip-path="url(#015ed4515d)"><path fill="#ffae35" d="M 59.03125 42.847656 C 61.433594 39.066406 64.058594 34.871094 64.058594 32.585938 C 64.058594 28.253906 60.535156 24.730469 56.203125 24.730469 C 51.871094 24.730469 48.347656 28.253906 48.347656 32.585938 C 48.347656 34.738281 51.074219 39.164062 53.394531 42.859375 C 49.996094 43.179688 46.40625 44.152344 46.40625 45.980469 C 46.40625 46.976562 47.484375 47.816406 49.527344 48.414062 C 55.28125 50.089844 66.164062 49.144531 66.164062 45.980469 C 66.164062 44.121094 62.5 43.15625 59.03125 42.847656 Z M 56.203125 45.378906 C 54.144531 41.925781 49.402344 35.039062 49.402344 32.585938 C 49.402344 28.835938 52.453125 25.785156 56.203125 25.785156 C 59.953125 25.785156 63 28.835938 63 32.585938 C 63 35.199219 58.28125 41.894531 56.203125 45.378906 Z M 56.203125 45.378906 " fill-opacity="1" fill-rule="nonzero"/></g><path fill="#ffae35" d="M 56.203125 28.503906 C 54.105469 28.503906 52.398438 30.210938 52.398438 32.308594 C 52.398438 34.40625 54.105469 36.109375 56.203125 36.109375 C 58.300781 36.109375 60.003906 34.40625 60.003906 32.308594 C 60.003906 30.210938 58.300781 28.503906 56.203125 28.503906 Z M 56.203125 35.054688 C 54.6875 35.054688 53.457031 33.824219 53.457031 32.308594 C 53.457031 30.792969 54.6875 29.5625 56.203125 29.5625 C 57.714844 29.5625 58.949219 30.792969 58.949219 32.308594 C 58.949219 33.824219 57.714844 35.054688 56.203125 35.054688 Z M 56.203125 35.054688 " fill-opacity="1" fill-rule="nonzero"/><g fill="#000000" fill-opacity="1"><g transform="translate(37.238803, 47.526099)"><g><path d="M 2.53125 -3.609375 C 2.414062 -3.609375 2.164062 -3.632812 1.78125 -3.6875 C 1.75 -3.0625 1.734375 -1.976562 1.734375 -0.4375 C 1.734375 -0.269531 1.679688 -0.128906 1.578125 -0.015625 C 1.472656 0.0859375 1.335938 0.140625 1.171875 0.140625 C 1.015625 0.140625 0.878906 0.0859375 0.765625 -0.015625 C 0.660156 -0.128906 0.609375 -0.269531 0.609375 -0.4375 L 0.609375 -2.234375 C 0.609375 -2.835938 0.644531 -3.6875 0.71875 -4.78125 C 0.800781 -5.96875 0.847656 -6.816406 0.859375 -7.328125 L 0.859375 -8.171875 C 0.859375 -8.578125 0.882812 -8.875 0.9375 -9.0625 C 1.03125 -9.414062 1.226562 -9.570312 1.53125 -9.53125 C 1.664062 -9.570312 1.851562 -9.601562 2.09375 -9.625 C 2.332031 -9.644531 2.628906 -9.65625 2.984375 -9.65625 C 3.734375 -9.65625 4.4375 -9.394531 5.09375 -8.875 C 5.8125 -8.3125 6.171875 -7.632812 6.171875 -6.84375 C 6.171875 -5.820312 5.785156 -5.015625 5.015625 -4.421875 C 4.328125 -3.878906 3.5 -3.609375 2.53125 -3.609375 Z M 2.84375 -8.484375 C 2.664062 -8.484375 2.503906 -8.476562 2.359375 -8.46875 C 2.222656 -8.457031 2.101562 -8.445312 2 -8.4375 L 1.984375 -7.296875 L 1.859375 -4.859375 L 2.53125 -4.78125 C 3.21875 -4.78125 3.800781 -4.953125 4.28125 -5.296875 C 4.789062 -5.679688 5.046875 -6.195312 5.046875 -6.84375 C 5.046875 -7.300781 4.800781 -7.695312 4.3125 -8.03125 C 3.851562 -8.332031 3.363281 -8.484375 2.84375 -8.484375 Z M 2.84375 -8.484375 "/></g></g></g><g fill="#000000" fill-opacity="1"><g transform="translate(43.784608, 47.526099)"><g/></g></g><g fill="#000000" fill-opacity="1"><g transform="translate(47.542576, 47.526099)"><g/></g></g><g fill="#000000" fill-opacity="1"><g transform="translate(51.300544, 47.526099)"><g/></g></g><g fill="#000000" fill-opacity="1"><g transform="translate(55.058512, 47.526099)"><g/></g></g><g fill="#000000" fill-opacity="1"><g transform="translate(58.81648, 47.526099)"><g/></g></g><g fill="#000000" fill-opacity="1"><g transform="translate(62.574449, 47.526099)"><g/></g></g><g fill="#000000" fill-opacity="1"><g transform="translate(66.332417, 47.526099)"><g/></g></g><g fill="#000000" fill-opacity="1"><g transform="translate(70.092202, 47.526099)"><g><path d="M 9.46875 -1.359375 C 9.46875 -1.160156 9.429688 -0.832031 9.359375 -0.375 C 9.296875 0.03125 9.078125 0.234375 8.703125 0.234375 C 8.484375 0.234375 8.21875 0.0859375 7.90625 -0.203125 C 6.238281 -1.773438 4.328125 -4.050781 2.171875 -7.03125 L 2.140625 -5.625 L 2.125 -4.234375 C 2.125 -3.890625 2.128906 -3.378906 2.140625 -2.703125 C 2.148438 -2.023438 2.15625 -1.515625 2.15625 -1.171875 C 2.15625 -0.0664062 1.941406 0.484375 1.515625 0.484375 C 1.296875 0.484375 1.117188 0.410156 0.984375 0.265625 C 0.867188 0.140625 0.8125 -0.0078125 0.8125 -0.1875 C 0.8125 -0.351562 0.820312 -0.609375 0.84375 -0.953125 C 0.875 -1.304688 0.890625 -1.570312 0.890625 -1.75 C 0.890625 -2 0.894531 -2.375 0.90625 -2.875 C 0.925781 -3.382812 0.9375 -3.765625 0.9375 -4.015625 C 0.9375 -4.285156 0.929688 -4.691406 0.921875 -5.234375 C 0.910156 -5.785156 0.90625 -6.195312 0.90625 -6.46875 C 0.90625 -6.726562 0.878906 -7.113281 0.828125 -7.625 C 0.773438 -8.132812 0.75 -8.519531 0.75 -8.78125 C 0.75 -8.96875 0.828125 -9.140625 0.984375 -9.296875 C 1.148438 -9.453125 1.335938 -9.53125 1.546875 -9.53125 C 1.765625 -9.53125 2.035156 -9.289062 2.359375 -8.8125 C 3.367188 -7.28125 4.285156 -6.007812 5.109375 -5 C 6.078125 -3.800781 7.140625 -2.65625 8.296875 -1.5625 C 8.304688 -1.738281 8.304688 -2 8.296875 -2.34375 L 8.28125 -3.125 C 8.28125 -4.914062 8.207031 -6.34375 8.0625 -7.40625 C 8.050781 -7.519531 8 -7.738281 7.90625 -8.0625 C 7.820312 -8.332031 7.78125 -8.546875 7.78125 -8.703125 C 7.78125 -9.179688 8 -9.421875 8.4375 -9.421875 C 9.144531 -9.421875 9.5 -8.09375 9.5 -5.4375 C 9.5 -4.976562 9.492188 -4.296875 9.484375 -3.390625 C 9.472656 -2.492188 9.46875 -1.816406 9.46875 -1.359375 Z M 9.46875 -1.359375 "/></g></g></g><g fill="#000000" fill-opacity="1"><g transform="translate(80.11345, 47.526099)"><g><path d="M 7.984375 -3.71875 C 7.734375 -2.457031 7.203125 -1.453125 6.390625 -0.703125 C 5.578125 0.046875 4.613281 0.421875 3.5 0.421875 C 2.5 0.421875 1.742188 0.140625 1.234375 -0.421875 C 0.734375 -0.984375 0.484375 -1.828125 0.484375 -2.953125 C 0.484375 -4.015625 0.734375 -5.109375 1.234375 -6.234375 C 1.734375 -7.359375 2.378906 -8.265625 3.171875 -8.953125 C 3.691406 -9.421875 4.242188 -9.65625 4.828125 -9.65625 C 5.203125 -9.65625 5.695312 -9.53125 6.3125 -9.28125 C 7.050781 -8.988281 7.421875 -8.660156 7.421875 -8.296875 C 7.421875 -8.128906 7.359375 -7.976562 7.234375 -7.84375 C 7.117188 -7.71875 6.972656 -7.65625 6.796875 -7.65625 C 6.703125 -7.65625 6.578125 -7.707031 6.421875 -7.8125 C 5.796875 -8.195312 5.265625 -8.390625 4.828125 -8.390625 C 4.523438 -8.390625 4.207031 -8.226562 3.875 -7.90625 C 3.707031 -7.75 3.460938 -7.457031 3.140625 -7.03125 C 2.191406 -5.78125 1.71875 -4.421875 1.71875 -2.953125 C 1.71875 -2.179688 1.835938 -1.644531 2.078125 -1.34375 C 2.335938 -1 2.8125 -0.828125 3.5 -0.828125 C 4.238281 -0.828125 4.878906 -1.0625 5.421875 -1.53125 C 5.984375 -2.019531 6.378906 -2.722656 6.609375 -3.640625 C 5.472656 -3.578125 4.5 -3.359375 3.6875 -2.984375 C 3.59375 -2.929688 3.503906 -2.90625 3.421875 -2.90625 C 3.234375 -2.90625 3.082031 -2.976562 2.96875 -3.125 C 2.851562 -3.25 2.796875 -3.394531 2.796875 -3.5625 C 2.796875 -3.789062 2.90625 -3.972656 3.125 -4.109375 C 4.007812 -4.640625 5.535156 -4.90625 7.703125 -4.90625 C 7.878906 -4.90625 8.023438 -4.847656 8.140625 -4.734375 C 8.265625 -4.617188 8.328125 -4.46875 8.328125 -4.28125 C 8.328125 -4.019531 8.210938 -3.832031 7.984375 -3.71875 Z M 7.984375 -3.71875 "/></g></g></g><g fill="#000000" fill-opacity="1"><g transform="translate(88.660986, 47.526099)"><g/></g></g><g fill="#000000" fill-opacity="1"><g transform="translate(92.418954, 47.526099)"><g><path d="M 4.921875 0.375 C 3.765625 0.375 2.785156 0.03125 1.984375 -0.65625 C 1.140625 -1.394531 0.71875 -2.347656 0.71875 -3.515625 C 0.71875 -4.929688 1.132812 -6.21875 1.96875 -7.375 C 2.90625 -8.65625 4.078125 -9.296875 5.484375 -9.296875 C 6.828125 -9.296875 7.828125 -8.992188 8.484375 -8.390625 C 9.160156 -7.765625 9.5 -6.769531 9.5 -5.40625 C 9.5 -3.988281 9.117188 -2.710938 8.359375 -1.578125 C 7.472656 -0.273438 6.328125 0.375 4.921875 0.375 Z M 5.484375 -8.046875 C 4.472656 -8.046875 3.617188 -7.546875 2.921875 -6.546875 C 2.285156 -5.628906 1.96875 -4.617188 1.96875 -3.515625 C 1.96875 -2.722656 2.257812 -2.078125 2.84375 -1.578125 C 3.40625 -1.117188 4.097656 -0.890625 4.921875 -0.890625 C 5.921875 -0.890625 6.742188 -1.390625 7.390625 -2.390625 C 7.960938 -3.285156 8.25 -4.289062 8.25 -5.40625 C 8.25 -6.382812 8.03125 -7.070312 7.59375 -7.46875 C 7.175781 -7.851562 6.472656 -8.046875 5.484375 -8.046875 Z M 5.484375 -8.046875 "/></g></g></g><g fill="#000000" fill-opacity="1"><g transform="translate(102.458623, 47.526099)"><g><path d="M 4.859375 0.25 C 3.578125 0.25 2.625 -0.117188 2 -0.859375 C 1.488281 -1.441406 1.171875 -2.3125 1.046875 -3.46875 C 0.984375 -3.988281 0.953125 -5.023438 0.953125 -6.578125 C 0.953125 -7.148438 0.960938 -7.613281 0.984375 -7.96875 C 1.015625 -8.34375 1.050781 -8.601562 1.09375 -8.75 C 1.195312 -9.050781 1.382812 -9.203125 1.65625 -9.203125 C 2.03125 -9.203125 2.21875 -8.851562 2.21875 -8.15625 L 2.21875 -4.5625 C 2.21875 -2.070312 3.085938 -0.828125 4.828125 -0.828125 C 6.453125 -0.828125 7.265625 -2.914062 7.265625 -7.09375 C 7.265625 -7.25 7.265625 -7.453125 7.265625 -7.703125 C 7.265625 -7.941406 7.265625 -8.101562 7.265625 -8.1875 C 7.265625 -8.445312 7.3125 -8.671875 7.40625 -8.859375 C 7.519531 -9.109375 7.6875 -9.234375 7.90625 -9.234375 C 8.320312 -9.234375 8.53125 -8.953125 8.53125 -8.390625 C 8.53125 -8.222656 8.53125 -7.96875 8.53125 -7.625 C 8.53125 -7.289062 8.53125 -7.035156 8.53125 -6.859375 C 8.53125 -2.117188 7.304688 0.25 4.859375 0.25 Z M 4.859375 0.25 "/></g></g></g><g fill="#000000" fill-opacity="1"><g transform="translate(111.724594, 47.526099)"><g><path d="M 8.359375 -7.75 C 8.054688 -7.75 7.59375 -7.773438 6.96875 -7.828125 C 6.351562 -7.867188 5.882812 -7.890625 5.5625 -7.890625 L 5.125 -7.890625 C 5.132812 -7.328125 5.191406 -6.410156 5.296875 -5.140625 C 5.378906 -3.953125 5.421875 -3.035156 5.421875 -2.390625 C 5.421875 -2.242188 5.4375 -2.023438 5.46875 -1.734375 C 5.5 -1.441406 5.515625 -1.222656 5.515625 -1.078125 C 5.515625 -0.796875 5.46875 -0.554688 5.375 -0.359375 C 5.257812 -0.0859375 5.082031 0.046875 4.84375 0.046875 C 4.675781 0.046875 4.523438 -0.0078125 4.390625 -0.125 C 4.265625 -0.238281 4.203125 -0.382812 4.203125 -0.5625 C 4.203125 -0.625 4.210938 -0.71875 4.234375 -0.84375 C 4.253906 -0.96875 4.265625 -1.0625 4.265625 -1.125 C 4.265625 -1.320312 4.25 -1.617188 4.21875 -2.015625 C 4.195312 -2.421875 4.1875 -2.722656 4.1875 -2.921875 C 4.1875 -3.515625 4.140625 -4.34375 4.046875 -5.40625 C 3.953125 -6.550781 3.894531 -7.375 3.875 -7.875 L 3.328125 -7.859375 C 2.429688 -7.859375 1.722656 -7.925781 1.203125 -8.0625 C 0.878906 -8.144531 0.71875 -8.347656 0.71875 -8.671875 C 0.71875 -8.835938 0.769531 -8.984375 0.875 -9.109375 C 1 -9.253906 1.15625 -9.316406 1.34375 -9.296875 C 1.488281 -9.296875 1.816406 -9.257812 2.328125 -9.1875 C 2.734375 -9.144531 3.066406 -9.125 3.328125 -9.125 C 3.566406 -9.125 3.9375 -9.128906 4.4375 -9.140625 C 4.9375 -9.148438 5.3125 -9.15625 5.5625 -9.15625 C 5.875 -9.15625 6.335938 -9.128906 6.953125 -9.078125 C 7.578125 -9.035156 8.046875 -9.015625 8.359375 -9.015625 C 8.535156 -9.015625 8.679688 -8.953125 8.796875 -8.828125 C 8.921875 -8.710938 8.984375 -8.566406 8.984375 -8.390625 C 8.984375 -8.210938 8.921875 -8.0625 8.796875 -7.9375 C 8.679688 -7.8125 8.535156 -7.75 8.359375 -7.75 Z M 8.359375 -7.75 "/></g></g></g></svg>